<svg width="1054" height="626" viewBox="0 0 1054 626" fill="none" xmlns="http://www.w3.org/2000/svg">
<rect width="1054" height="626" fill="#E5E5E5"/>
<rect width="1054" height="626" fill="white"/>
<path d="M222 64L235.695 103.041L280.014 103.041L244.16 127.169L257.855 166.209L222 142.081L186.145 166.209L199.84 127.169L163.986 103.041L208.305 103.041L222 64Z" fill="#1454FA"/>
<rect x="217" y="137" width="10" height="145" fill="#2151FE"/>
<path d="M256 164C266.804 172.441 250.86 181.276 256.222 192C260.669 200.894 268 205 268 216" stroke="black" stroke-linecap="round" stroke-linejoin="round"/>
<path d="M277 105C280.327 110.683 282 114.128 282 120.5C282 125.092 280 128.116 280 133C280 136.833 280 140.667 280 144.5C280 149.125 285 151.468 285 156" stroke="black" stroke-linecap="round" stroke-linejoin="round"/>
<path d="M187 166C187 169.33 187.662 171.959 188 175C188.24 177.156 190.567 178.478 190.944 180.556C191.483 183.519 193 185.927 193 189C193 196 193 203 193 210" stroke="black" stroke-linecap="round" stroke-linejoin="round"/>
<path d="M166 107C163.307 113.653 163 118.056 163 125C163 127.815 163 130.63 163 133.444C163 136.37 164.459 137.887 164.944 140.556C166.096 146.887 169 151.68 169 158.5C169 161.453 169.582 164.651 168 167.222C167.217 168.495 165.94 172.881 165 171" stroke="black" stroke-linecap="round" stroke-linejoin="round"/>
<path d="M193 209C191.304 216.725 189.48 219.52 184 225" stroke="black" stroke-linecap="round" stroke-linejoin="round"/>
<path d="M257 165C263.202 170.116 266.786 176.1 264.944 184.389C264.054 188.397 258.756 195.395 255.5 198C251.6 201.12 250 206.231 250 211C250 218.227 255.204 219.409 258 225" stroke="black" stroke-linecap="round" stroke-linejoin="round"/>
<path d="M275 107C273.887 113.82 271 117.433 271 124.444C271 131.419 273.318 133.146 277 138.778C280.368 143.929 284.424 146.704 287 152.5C289.044 157.099 291 160.718 291 166" stroke="black" stroke-linecap="round" stroke-linejoin="round"/>
<path d="M283 154C282.013 159.059 283.753 168.247 280 172" stroke="black" stroke-linecap="round" stroke-linejoin="round"/>
<path d="M281 151C281 159.445 283 166.524 283 175" stroke="black" stroke-linecap="round" stroke-linejoin="round"/>
<path d="M166 168C164.959 173.337 162.085 180.36 158.222 184.222C155.743 186.701 150.798 195.266 147 194" stroke="black" stroke-linecap="round" stroke-linejoin="round"/>
<path d="M163 105C163 109.696 163.96 116.635 161.778 121C160.012 124.531 158.254 127.678 156.778 131C155.337 134.242 156 138.45 156 142C156 146.266 155 150.145 155 154.556C155 157.199 157 157.653 157 160C157 161.992 157.465 164.842 158.556 166.556C160.573 169.725 160.392 174.906 161.056 178.556C162.003 183.767 163 188.118 163 193.5C163 195.653 163 205.233 163 203" stroke="black" stroke-linecap="round" stroke-linejoin="round"/>
<path d="M185 222C183.354 226.745 180.079 231.956 175.5 234.5C170.34 237.366 168.847 244.167 168 234" stroke="black" stroke-linecap="round" stroke-linejoin="round"/>
<path d="M185 169C185 176.92 183 184.275 183 192C183 195.264 182 197.946 182 201.222C182 204.572 184 207.279 184 210.5C184 213.235 185.521 215.096 186.056 217.5C186.709 220.441 187.499 224.198 188.5 227C190.413 232.357 190 249.689 190 244" stroke="black" stroke-linecap="round" stroke-linejoin="round"/>
<path d="M164 104C163.667 105.667 163.333 107.333 163 109" stroke="black" stroke-linecap="round" stroke-linejoin="round"/>
<path d="M165 105C165 107 165 109 165 111" stroke="black" stroke-linecap="round" stroke-linejoin="round"/>
<path d="M279 139C279.853 143.374 283.014 173.993 279 176" stroke="black" stroke-linecap="round" stroke-linejoin="round"/>
</svg>
